<svg width="1240" height="320" viewBox="0 0 1240 320" xmlns="http://www.w3.org/2000/svg" role="img" aria-label="AdinKhepra ASAF">
  <defs>
    <linearGradient id="tile" x1="0" y1="0" x2="0" y2="1">
      <stop offset="0" stop-color="#142235"/>
      <stop offset="0.55" stop-color="#0C1726"/>
      <stop offset="1" stop-color="#070E18"/>
    </linearGradient>
    <linearGradient id="node" x1="0" y1="0" x2="0" y2="1">
      <stop offset="0" stop-color="#5BD4FF"/>
      <stop offset="1" stop-color="#2B7FE0"/>
    </linearGradient>
    <linearGradient id="root" x1="0" y1="0" x2="0" y2="1">
      <stop offset="0" stop-color="#8AE6FF"/>
      <stop offset="1" stop-color="#3A93EE"/>
    </linearGradient>
    <linearGradient id="edge" x1="0" y1="0" x2="0" y2="1">
      <stop offset="0" stop-color="#6FD0FF" stop-opacity="0.95"/>
      <stop offset="1" stop-color="#2F84E2" stop-opacity="0.65"/>
    </linearGradient>
    <linearGradient id="wordmark" x1="0" y1="0" x2="1" y2="0">
      <stop offset="0" stop-color="#EAF6FF"/>
      <stop offset="1" stop-color="#B9D8F2"/>
    </linearGradient>
    <filter id="glow" x="-40%" y="-40%" width="180%" height="180%">
      <feGaussianBlur stdDeviation="6" result="b"/>
      <feMerge>
        <feMergeNode in="b"/>
        <feMergeNode in="SourceGraphic"/>
      </feMerge>
    </filter>
  </defs>
  <g transform="translate(30,30)">
    <rect x="0" y="0" width="260" height="260" rx="58" fill="url(#tile)"/>
    <rect x="1.5" y="1.5" width="257" height="257" rx="56.5" fill="none" stroke="#3C6CA8" stroke-opacity="0.35" stroke-width="2"/>
    <g transform="translate(130,130) scale(0.46) translate(-256,-256)">
      <g stroke="url(#edge)" stroke-width="15" stroke-linecap="round" fill="none" filter="url(#glow)">
        <path d="M256 242 L184 314"/>
        <path d="M256 242 L328 314"/>
      </g>
      <g filter="url(#glow)">
        <rect x="206" y="124" width="100" height="100" rx="22" fill="none" stroke="url(#root)" stroke-width="16"/>
        <rect x="194" y="112" width="34" height="34" rx="9" fill="url(#root)"/>
        <rect x="284" y="112" width="34" height="34" rx="9" fill="url(#root)"/>
        <rect x="194" y="202" width="34" height="34" rx="9" fill="url(#root)"/>
        <rect x="284" y="202" width="34" height="34" rx="9" fill="url(#root)"/>
        <circle cx="256" cy="174" r="20" fill="#0C1726"/>
        <circle cx="256" cy="174" r="11" fill="url(#root)"/>
      </g>
      <g filter="url(#glow)">
        <rect x="138" y="312" width="68" height="68" rx="18" fill="#0C1726" stroke="url(#node)" stroke-width="15"/>
        <circle cx="172" cy="346" r="13" fill="url(#node)"/>
        <rect x="306" y="312" width="68" height="68" rx="18" fill="#0C1726" stroke="url(#node)" stroke-width="15"/>
        <circle cx="340" cy="346" r="13" fill="url(#node)"/>
      </g>
    </g>
  </g>
  <g transform="translate(330,0)">
    <text x="0" y="158" font-family="Verdana, 'DejaVu Sans', sans-serif" font-size="92" font-weight="700" letter-spacing="-2" fill="url(#wordmark)">AdinKhepra</text>
    <text x="4" y="240" font-family="Verdana, 'DejaVu Sans', sans-serif" font-size="60" font-weight="700" letter-spacing="14" fill="#5BD4FF">ASAF</text>
    <rect x="232" y="206" width="3" height="40" fill="#3C6CA8" fill-opacity="0.6"/>
    <text x="252" y="237" font-family="Verdana, 'DejaVu Sans', sans-serif" font-size="25" font-weight="400" letter-spacing="1.5" fill="#8FB3D4">Agentic Security Attestation Framework</text>
  </g>
</svg>
